<svg width="100" height="100" viewBox="0 0 100 100" fill="none" xmlns="http://www.w3.org/2000/svg">
<rect width="100" height="100" fill="white"/>
<path d="M7.52 53.26C7.52 53.74 7.60667 54.1467 7.78 54.48C7.95333 54.8133 8.18 55.0867 8.46 55.3C8.75333 55.5 9.09333 55.6533 9.48 55.76C9.86667 55.8533 10.2667 55.9 10.68 55.9C10.96 55.9 11.26 55.88 11.58 55.84C11.9 55.7867 12.2 55.6933 12.48 55.56C12.76 55.4267 12.9933 55.2467 13.18 55.02C13.3667 54.78 13.46 54.48 13.46 54.12C13.46 53.7333 13.3333 53.42 13.08 53.18C12.84 52.94 12.52 52.74 12.12 52.58C11.72 52.42 11.2667 52.28 10.76 52.16C10.2533 52.04 9.74 51.9067 9.22 51.76C8.68667 51.6267 8.16667 51.4667 7.66 51.28C7.15333 51.08 6.7 50.8267 6.3 50.52C5.9 50.2133 5.57333 49.8333 5.32 49.38C5.08 48.9133 4.96 48.3533 4.96 47.7C4.96 46.9667 5.11333 46.3333 5.42 45.8C5.74 45.2533 6.15333 44.8 6.66 44.44C7.16667 44.08 7.74 43.8133 8.38 43.64C9.02 43.4667 9.66 43.38 10.3 43.38C11.0467 43.38 11.76 43.4667 12.44 43.64C13.1333 43.8 13.7467 44.0667 14.28 44.44C14.8133 44.8133 15.2333 45.2933 15.54 45.88C15.86 46.4533 16.02 47.1533 16.02 47.98H12.98C12.9533 47.5533 12.86 47.2 12.7 46.92C12.5533 46.64 12.3533 46.42 12.1 46.26C11.8467 46.1 11.5533 45.9867 11.22 45.92C10.9 45.8533 10.5467 45.82 10.16 45.82C9.90667 45.82 9.65333 45.8467 9.4 45.9C9.14667 45.9533 8.91333 46.0467 8.7 46.18C8.5 46.3133 8.33333 46.48 8.2 46.68C8.06667 46.88 8 47.1333 8 47.44C8 47.72 8.05333 47.9467 8.16 48.12C8.26667 48.2933 8.47333 48.4533 8.78 48.6C9.1 48.7467 9.53333 48.8933 10.08 49.04C10.64 49.1867 11.3667 49.3733 12.26 49.6C12.5267 49.6533 12.8933 49.7533 13.36 49.9C13.84 50.0333 14.3133 50.2533 14.78 50.56C15.2467 50.8667 15.6467 51.28 15.98 51.8C16.3267 52.3067 16.5 52.96 16.5 53.76C16.5 54.4133 16.3733 55.02 16.12 55.58C15.8667 56.14 15.4867 56.6267 14.98 57.04C14.4867 57.44 13.8667 57.7533 13.12 57.98C12.3867 58.2067 11.5333 58.32 10.56 58.32C9.77333 58.32 9.00667 58.22 8.26 58.02C7.52667 57.8333 6.87333 57.5333 6.3 57.12C5.74 56.7067 5.29333 56.18 4.96 55.54C4.62667 54.9 4.46667 54.14 4.48 53.26H7.52ZM18.3683 43.72H29.0483V46.36H21.5083V49.42H28.4283V51.86H21.5083V55.36H29.2083V58H18.3683V43.72ZM34.477 50.18H37.917C38.637 50.18 39.177 50.02 39.537 49.7C39.897 49.38 40.077 48.86 40.077 48.14C40.077 47.4467 39.897 46.9467 39.537 46.64C39.177 46.32 38.637 46.16 37.917 46.16H34.477V50.18ZM31.337 43.72H39.037C39.677 43.72 40.2504 43.8267 40.757 44.04C41.277 44.24 41.717 44.52 42.077 44.88C42.4504 45.24 42.7304 45.66 42.917 46.14C43.117 46.6067 43.217 47.1133 43.217 47.66C43.217 48.5 43.037 49.2267 42.677 49.84C42.3304 50.4533 41.757 50.92 40.957 51.24V51.28C41.3437 51.3867 41.6637 51.5533 41.917 51.78C42.1704 51.9933 42.377 52.2533 42.537 52.56C42.697 52.8533 42.8104 53.18 42.877 53.54C42.957 53.9 43.0104 54.26 43.037 54.62C43.0504 54.8467 43.0637 55.1133 43.077 55.42C43.0904 55.7267 43.1104 56.04 43.137 56.36C43.177 56.68 43.2304 56.9867 43.297 57.28C43.377 57.56 43.4904 57.8 43.637 58H40.497C40.3237 57.5467 40.217 57.0067 40.177 56.38C40.137 55.7533 40.077 55.1533 39.997 54.58C39.8904 53.8333 39.6637 53.2867 39.317 52.94C38.9704 52.5933 38.4037 52.42 37.617 52.42H34.477V58H31.337V43.72ZM45.7706 43.72H48.9106V58H45.7706V43.72ZM51.6691 43.72H54.7891L60.7491 53.3H60.7891V43.72H63.7291V58H60.5891L54.6491 48.44H54.6091V58H51.6691V43.72ZM66.4933 43.72H69.6333V58H66.4933V43.72ZM75.5517 46.36H71.2717V43.72H82.9717V46.36H78.6917V58H75.5517V46.36ZM88.3183 52.44L83.0783 43.72H86.5983L89.9383 49.36L93.2583 43.72H96.7583L91.4583 52.52V58H88.3183V52.44Z" fill="black"/>
</svg>
